<?xml version="1.0" encoding="UTF-8"?>
<svg width="147px" height="148px" viewBox="0 0 147 148" version="1.1" xmlns="http://www.w3.org/2000/svg" xmlns:xlink="http://www.w3.org/1999/xlink">
    <!-- Generator: Sketch 57.1 (83088) - https://sketch.com -->
    <title>coffee-cup</title>
    <desc>Created with Sketch.</desc>
    <g id="Computer" stroke="none" stroke-width="1" fill="none" fill-rule="evenodd">
        <g id="White-design" transform="translate(-647.000000, -81.000000)" fill="white">
            <g id="coffee-cup" transform="translate(647.000000, 81.000000)">
                <g>
                    <path d="M144.128906,75.0493587 L120.585938,75.0493587 L120.585938,68.9035065 C120.585938,67.2998999 119.300262,66 117.714844,66 C116.962027,66 114.84375,66.9064916 114.84375,68.9037968 C114.84375,69.5209956 114.84375,70.4887343 114.84375,71.807013 L114.84375,94.0670358 C114.84375,113.621571 104.520158,131.79578 87.8503008,141.684542 C74.5608891,141.68473 65.7076992,141.684777 61.2907311,141.684683 C56.873763,141.684589 47.4796646,141.684639 33.1084359,141.684833 C18.1651621,132.798744 5.7421875,113.621571 5.7421875,94.0673262 L5.7421875,71.8073033 L48.0588748,71.8073033 C49.6442928,71.8073033 51.4057407,70.5071131 51.4057407,68.9035065 C51.4057407,67.2998999 49.6442928,66 48.0588748,66 L2.87109375,66 C1.28567578,66 0,67.3001902 0,68.9037968 L0,94.0673262 C0,105.042581 2.91703125,115.804137 8.43584766,125.18798 C12.1576465,131.516753 16.9868262,137.105422 22.6420195,141.684833 L29.0572031,146.21526 C36.150558,147.912529 48.8247694,147.707588 60.5605326,147.831092 C72.5260037,147.957013 83.5452487,148.38239 89.7641873,147.097084 L97.943918,141.684833 C103.148924,137.470103 107.65166,132.398548 111.237656,126.683286 L119.341893,126.683286 C134.592568,126.683286 147,114.135782 147,98.7129365 L147,77.9528652 C147,76.3492585 145.714611,75.0493587 144.128906,75.0493587 Z M120.585938,93.8515536 L120.585938,92.2669017 L129.773438,92.2669017 L129.773438,98.46145 C129.773438,104.233617 125.093842,108.92966 119.341893,108.92966 L118.689867,108.92966 C119.9431,104.029917 120.585938,98.9642169 120.585938,93.8515536 Z M141.257812,98.46145 C141.257812,110.588359 131.426326,120.454402 119.341893,120.454402 L114.455291,120.454402 C115.372031,118.575581 116.190867,116.652101 116.906344,114.692031 L119.341893,114.692031 C128.260371,114.692031 135.515625,107.410988 135.515625,98.46145 L135.515625,89.3857164 C135.515625,87.7944378 134.229949,86.5045312 132.644531,86.5045312 L120.585937,86.5045312 L120.585937,80.7421607 L141.257812,80.7421607 L141.257812,98.46145 Z" id="Shape" fill-rule="nonzero"></path>
                    <path d="M94.1773438,66 L117.653498,66 C118.783423,66 119.772891,66.7579025 120.067203,67.8488255 L120.355515,68.9175124 C120.688482,70.151718 119.957883,71.4221621 118.723678,71.7551287 C118.527103,71.808161 118.324391,71.8350249 118.120788,71.8350249 L94.1201635,71.8350249 C92.7394516,71.8350249 91.6201635,70.7157368 91.6201635,69.3350249 C91.6201635,69.073419 91.6201635,68.8118132 91.6201635,68.5502073 C91.6201635,68.526445 91.6568848,68.3390495 91.7303274,67.988021 C91.9726806,66.8297178 92.9939583,66 94.1773438,66 Z" id="Rectangle" fill-rule="nonzero"></path>
                    <path d="M61.6733362,28.4894144 L60.215923,25.5990035 C58.0764415,21.3563122 58.0733603,15.4250404 60.2080799,11.1761541 C61.1699782,9.26189847 60.9671785,6.47857262 59.7554219,4.95902715 C58.5433851,3.43948168 56.7817722,3.76073678 55.8198739,5.67410737 C52.0549131,13.1682897 52.0605153,23.6289929 55.8338794,31.1125552 L57.2912927,34.0034086 C60.0867922,39.5483778 60.0909938,47.2992102 57.3013766,52.8512594 L55.8078292,55.8235328 C54.8459308,57.7377884 55.0484505,60.5211142 56.2602071,62.0406597 C56.7753297,62.6862674 57.3893312,63 57.9996913,63 C58.8248959,63 59.6425375,62.4265198 60.1954749,61.326022 L61.6893025,58.3533061 C66.1094411,49.5559609 66.1029985,37.2756971 61.6733362,28.4894144 Z" id="Path" fill-rule="nonzero"></path>
                    <path d="M76.6733362,24.4894144 L75.215923,21.5990035 C73.0764415,17.3563122 73.0733603,11.4250404 75.2080799,7.17615406 C76.1699782,5.26189847 75.9671785,2.47857262 74.7554219,0.95902715 C73.5433851,-0.560518318 71.7817722,-0.239263219 70.8198739,1.67410737 C67.0549131,9.16828967 67.0605153,19.6289929 70.8338794,27.1125552 L72.2912927,30.0034086 C75.0867922,35.5483778 75.0909938,43.2992102 72.3013766,48.8512594 L70.8078292,51.8235328 C69.8459308,53.7377884 70.0484505,56.5211142 71.2602071,58.0406597 C71.7753297,58.6862674 72.3893312,59 72.9996913,59 C73.8248959,59 74.6425375,58.4265198 75.1954749,57.326022 L76.6893025,54.3533061 C81.1094411,45.5559609 81.1029985,33.2756971 76.6733362,24.4894144 Z" id="Path-Copy" fill-rule="nonzero"></path>
                    <circle id="Oval" cx="119.5" cy="143.5" r="4.5"></circle>
                </g>
            </g>
        </g>
    </g>
</svg>